<?xml version="1.0" encoding="UTF-8"?>
<!-- Created with Inkscape (http://www.inkscape.org/) -->
<svg width="800" height="800" version="1.1" viewBox="0 0 211.67 211.67" xmlns="http://www.w3.org/2000/svg" xmlns:xlink="http://www.w3.org/1999/xlink">
 <defs>
  <linearGradient id="linearGradient231" x1="37.041" x2="248.71" y1="183.48" y2="183.48" gradientUnits="userSpaceOnUse">
   <stop stop-color="#7fccff" offset="0"/>
   <stop stop-color="#c8c837" offset="1"/>
  </linearGradient>
  <linearGradient id="linearGradient232" x1="240.46" x2="45.289" y1="102.17" y2="102.17" gradientUnits="userSpaceOnUse">
   <stop stop-color="#7fccff" offset="0"/>
   <stop stop-color="#c8c837" offset="1"/>
  </linearGradient>
 </defs>
 <g transform="translate(-37.041 -37.041)" stroke="#fff" stroke-width=".19581">
  <path d="m142.88 37.139c-2.7167 1.05e-4 -5.4324 0.10491-8.1411 0.31419-5.4854 0.42363-10.929 1.2747-16.282 2.5456-5.5613 1.3202-11.006 3.0892-16.282 5.2896-5.3843 2.246-10.573 4.9337-15.514 8.0357-0.25667 0.16099-0.51264 0.32308-0.76791 0.48628-5.8345 3.7331-11.288 8.0305-16.282 12.83-1.0077 0.9687-1.9961 1.9573-2.9647 2.9652-4.7997 4.9941-9.0971 10.448-12.83 16.282-0.16336 0.25527-0.32563 0.51124-0.48679 0.76791-3.1018 4.9407-5.7893 10.13-8.0352 15.514h47.884c1.347-1.6431 2.7755-3.2196 4.2793-4.7232 1.502-1.5018 3.0764-2.9278 4.7175-4.2731 3.4072-2.7932 7.101-5.2375 11.027-7.2853 1.7093-0.89165 3.4624-1.708 5.255-2.4453 5.1392-2.1138 10.602-3.5773 16.282-4.2969 2.6692-0.33819 5.3862-0.51207 8.1401-0.51211h4e-3c2.7531 1.09e-4 5.4691 0.17406 8.1375 0.51211v104.43h5.1e-4a32.564 32.564 135 0 0 32.564-32.564v-57.842c1.6424 1.3464 3.2182 2.7736 4.7212 4.2767 1.5025 1.5026 2.9293 3.0778 4.2752 4.7196h47.885c-2.2459-5.3843-4.9336-10.573-8.0356-15.514-0.16099-0.25649-0.32308-0.51229-0.48627-0.7674-3.7331-5.8345-8.0305-11.288-12.83-16.282-0.9687-1.0079-1.9573-1.9965-2.9652-2.9652-4.994-4.7997-10.448-9.0971-16.282-12.83-0.2551-0.16319-0.5109-0.32528-0.7674-0.48628-4.9409-3.102-10.13-5.7897-15.514-8.0357-5.2755-2.2006-10.721-3.9698-16.282-5.2901-5.3529-1.2707-10.797-2.1216-16.282-2.5451-2.7085-0.20927-5.424-0.31408-8.1406-0.31419z" fill="url(#linearGradient232)"/>
  <path d="m39.999 118.45c-1.2707 5.3529-2.1216 10.797-2.5451 16.282-0.20927 2.7085-0.31408 5.424-0.31419 8.1406 1.05e-4 2.7167 0.10491 5.4324 0.31419 8.1411 0.42363 5.4854 1.2747 10.929 2.5456 16.282 1.3202 5.5613 3.0892 11.006 5.2896 16.282 2.2458 5.3841 4.9334 10.573 8.0352 15.514 0.16116 0.25684 0.32343 0.51299 0.48679 0.76843 3.7331 5.8346 8.0305 11.288 12.83 16.282 0.96853 1.0077 1.957 1.9961 2.9647 2.9647 4.9941 4.7997 10.448 9.0971 16.282 12.83 0.25544 0.16336 0.51159 0.32563 0.76843 0.48679 4.9407 3.1018 10.13 5.7893 15.514 8.0352 5.2753 2.2004 10.72 3.9694 16.282 5.2896 5.3529 1.2708 10.797 2.122 16.282 2.5456 2.7087 0.20928 5.4244 0.31409 8.1411 0.31419 2.7166-1.2e-4 5.4321-0.10492 8.1406-0.31419 5.4854-0.42346 10.929-1.2744 16.282-2.5451 5.5615-1.3204 11.007-3.0895 16.282-5.2901 5.3841-2.2458 10.573-4.9334 15.514-8.0352 0.25667-0.16116 0.51264-0.32343 0.76791-0.48679 5.8346-3.7331 11.288-8.0305 16.282-12.83 1.0079-0.96853 1.9965-1.9569 2.9652-2.9647 4.7997-4.994 9.0971-10.448 12.83-16.282 0.16319-0.25528 0.32528-0.51125 0.48627-0.76792 3.102-4.9409 5.7897-10.13 8.0357-15.514 2.2004-5.2753 3.9694-10.72 5.2896-16.282 1.2708-5.3529 2.122-10.797 2.5456-16.282 0.20928-2.7087 0.31409-5.4244 0.31419-8.1411-1.2e-4 -2.7166-0.10492-5.4321-0.31419-8.1406-0.42346-5.4854-1.2744-10.929-2.5451-16.282h-43.444c2.1138 5.1392 3.5773 10.602 4.2969 16.282 0.33819 2.6694 0.51212 5.3865 0.51212 8.1406 0 2.7367-0.17471 5.4553-0.5178 8.1411-0.71747 5.6166-2.1718 11.09-4.3062 16.282-0.73108 1.7786-1.5419 3.5243-2.4303 5.2317-2.0324 3.9058-4.4702 7.6109-7.2869 11.05-1.3398 1.6359-2.7654 3.2117-4.2736 4.7201l-3e-3 3e-3c-1.5078 1.5076-3.0828 2.9322-4.718 4.2716-3.4391 2.8167-7.1446 5.255-11.05 7.2874-1.7074 0.88844-3.4531 1.6992-5.2317 2.4303-5.1926 2.1344-10.666 3.5888-16.282 4.3062-2.685 0.34292-5.4026 0.51728-8.1385 0.51728h-0.0109c-2.7511-3.2e-4 -5.4657-0.1743-8.1323-0.51212v-84.969a4.2316 4.2316 32.13 0 0-5.0678-3.1828h-22.428a5.0678 5.0678 135 0 0-5.0678 5.0678v69.056c-1.6439-1.3477-3.2211-2.7767-4.7253-4.2814-1.5008-1.5011-2.9265-3.0748-4.2711-4.715-2.7934-3.4074-5.2379-7.1013-7.2859-11.027-0.89152-1.709-1.7081-3.4621-2.4453-5.2545-2.1138-5.1391-3.5767-10.602-4.2964-16.282-0.33818-2.6692-0.51207-5.3862-0.51211-8.1401v-6e-3c2.18e-4 -2.7524 0.17412-5.4676 0.51211-8.1354 0.71961-5.6799 2.1826-11.143 4.2964-16.282h-30.119z" fill="url(#linearGradient231)"/>
 </g>
</svg>
